<?xml version="1.0" encoding="utf-8"?><!-- Uploaded to: SVG Repo, www.svgrepo.com, Generator: SVG Repo Mixer Tools -->
<svg fill="#000000" width="64px" height="64px" viewBox="0 0 24 24" id="clouds-strom" data-name="Flat Color" xmlns="http://www.w3.org/2000/svg" class="icon flat-color">
<path id="primary" d="M16.68,9.06a6,6,0,0,0-10.9-1A4.5,4.5,0,0,0,6.5,17H16a4,4,0,0,0,.68-7.94Z" style="fill: rgb(96, 124, 139);"></path>
<path id="secondary-2" data-name="secondary" d="M11,21a.93.93,0,0,1-.45-.11,1,1,0,0,1-.44-1.34L11.38,17H9a1,1,0,0,1-.89-1.45l2-4a1,1,0,0,1,1.78.9L10.62,15H13a1,1,0,0,1,.89,1.45l-2,4A1,1,0,0,1,11,21Z" style="fill: rgb(255, 193, 10);"></path></svg>