<?xml version="1.0" encoding="iso-8859-1"?>
<!-- Uploaded to: SVG Repo, www.svgrepo.com, Generator: SVG Repo Mixer Tools -->
<svg fill="#000000" height="64px" width="64px" version="1.1" id="Layer_1" xmlns="http://www.w3.org/2000/svg" xmlns:xlink="http://www.w3.org/1999/xlink" 
	viewBox="0 0 480.063 480.063" xml:space="preserve">
<g transform="translate(0 -540.36)">
	<g>
		<g>
			<path fill="#607C8B" d="M63.752,934.623c4.9,3.8,30.1,23,48.8,23c11,0,19.5-6.5,26.9-12.3c5.7-4.4,11-8.5,15.8-8.5c4.2,0,9.2,3.9,14.6,8.1
				c7.7,6,16.4,12.8,28,12.8c11,0,19.5-6.5,26.9-12.3c5.7-4.4,11-8.5,15.8-8.5c4.2,0,9.3,4,14.7,8.3c7.5,5.9,16,12.6,27.1,12.6
				c11.6,0,20.3-6.8,28-12.8c5.4-4.2,10.5-8.1,14.6-8.1c4.8,0,10.2,4.1,15.8,8.5c7.5,5.7,15.9,12.3,26.9,12.3
				c18.7,0,43.9-19.2,48.7-23.2c4.3-3.4,5-9.7,1.6-14c-3.4-4.3-9.7-5-14-1.6c-9.8,7.8-27.6,18.7-36.4,18.7c-4.2,0-9.2-3.9-14.6-8.1
				c-7.7-6-16.4-12.8-28-12.8c-11,0-19.5,6.5-26.9,12.3c-5.7,4.4-11,8.5-15.8,8.5c-4.2,0-9.3-4-14.7-8.3c-7.5-5.9-16-12.6-27.1-12.6
				c-11.6,0-20.3,6.8-28,12.8c-5.4,4.2-10.5,8.1-14.6,8.1c-4.8,0-10.2-4.1-15.8-8.5c-7.5-5.7-15.9-12.3-26.9-12.3
				c-11.6,0-20.3,6.8-28,12.8c-5.4,4.2-10.5,8.1-14.6,8.1c-8.7,0-26.5-10.9-36.4-18.7c-4.3-3.4-10.6-2.6-14,1.7
				C58.652,924.923,59.452,931.223,63.752,934.623z"/>
			<path fill="#607C8B" d="M403.952,981.523c-9.8,7.8-27.6,18.7-36.4,18.7c-4.2,0-9.2-3.9-14.6-8.1c-7.7-6-16.4-12.8-28-12.8
				c-11,0-19.5,6.5-26.9,12.3c-5.7,4.4-11,8.5-15.8,8.5c-4.2,0-9.3-4-14.7-8.3c-7.5-5.9-16-12.6-27.1-12.6c-11.6,0-20.3,6.8-28,12.8
				c-5.4,4.2-10.5,8.1-14.6,8.1c-4.8,0-10.2-4.1-15.8-8.5c-7.5-5.7-15.9-12.3-26.9-12.3c-11.6,0-20.3,6.8-28,12.8
				c-5.4,4.2-10.5,8.1-14.6,8.1c-8.7,0-26.5-10.9-36.4-18.7c-4.3-3.4-10.6-2.6-14,1.7c-3.5,4.3-2.7,10.6,1.6,14
				c4.9,3.8,30.1,23,48.8,23c11,0,19.5-6.5,26.9-12.3c5.7-4.4,11-8.5,15.8-8.5c4.2,0,9.2,3.9,14.6,8.1c7.7,6,16.4,12.8,28,12.8
				c11,0,19.5-6.5,26.9-12.3c5.7-4.4,11-8.5,15.8-8.5c4.2,0,9.3,4,14.7,8.3c7.5,5.9,16,12.6,27.1,12.6c11.6,0,20.3-6.8,28-12.8
				c5.4-4.2,10.5-8.1,14.6-8.1c4.8,0,10.2,4.1,15.8,8.5c7.5,5.7,15.9,12.3,26.9,12.3c18.7,0,43.9-19.2,48.7-23.2
				c4.3-3.4,5-9.7,1.6-14C414.552,978.823,408.252,978.123,403.952,981.523z"/>
			<path fill="#607C8B" d="M122.152,824.423c33.2,32.1,77.4,49.8,124.5,49.8v0c0,0,0.1,0,0.2,0.1c35.1-0.4,69-10.7,98-29.6
				c29.4-19.2,51.7-46.1,64.5-77.7c1.4-3.5,0.7-7.6-1.8-10.4s-6.4-4-10.1-3c-15.6,4.2-30.1,6.3-44.2,6.3
				c-85.6,0-155.3-67.4-155.3-150.3c0-18.3,3.8-37,11.2-55.6c1.4-3.5,0.7-7.6-1.9-10.4c-2.6-2.8-6.5-3.9-10.2-2.9
				c-36.7,10.4-68.3,31.6-91.3,61.2c-23,29.6-35.2,64.9-35.2,102C70.552,749.423,88.852,792.223,122.152,824.423z M183.752,566.523
				c-3.9,14.4-5.9,28.8-5.9,43.1c0,93.9,78.6,170.3,175.3,170.3c9.4,0,19-0.9,28.8-2.5c-26.8,46.5-77.9,76.1-135.4,76.8
				c-86.1,0-156.1-67.5-156.1-150.3C90.452,644.323,127.952,590.223,183.752,566.523z"/>
		</g>
	</g>
</g>
</svg>